<svg preserveAspectRatio="none" overflow="visible" style="display: block;" width="14.5" height="14.5" viewBox="0 0 14.5 14.5" fill="none" xmlns="http://www.w3.org/2000/svg">
<path id="plus" d="M0 7.25C0 7.03323 0.0761616 6.84869 0.228485 6.69636C0.386667 6.53818 0.571212 6.45909 0.782121 6.45909H6.46788V0.782121C6.46788 0.571212 6.54404 0.389596 6.69636 0.237273C6.84869 0.0790909 7.03323 0 7.25 0C7.46677 0 7.65131 0.0790909 7.80364 0.237273C7.96182 0.389596 8.04091 0.571212 8.04091 0.782121V6.45909H13.7179C13.9288 6.45909 14.1104 6.53818 14.2627 6.69636C14.4209 6.84869 14.5 7.03323 14.5 7.25C14.5 7.46677 14.4209 7.65131 14.2627 7.80364C14.1104 7.95596 13.9288 8.03212 13.7179 8.03212H8.04091V13.7179C8.04091 13.9288 7.96182 14.1104 7.80364 14.2627C7.65131 14.4209 7.46677 14.5 7.25 14.5C7.03323 14.5 6.84869 14.4209 6.69636 14.2627C6.54404 14.1104 6.46788 13.9288 6.46788 13.7179V8.03212H0.782121C0.571212 8.03212 0.386667 7.95596 0.228485 7.80364C0.0761616 7.65131 0 7.46677 0 7.25Z" fill="white"/>
</svg>
