<svg preserveAspectRatio="none" overflow="visible" style="display: block;" width="13.1827" height="13.1783" viewBox="0 0 13.1827 13.1783" fill="none" xmlns="http://www.w3.org/2000/svg">
<g id="Vector">
<path d="M2.32763 7.97063C2.47163 7.57913 3.02513 7.57913 3.17363 7.97063L3.65063 9.26213C3.69563 9.38363 3.79463 9.48263 3.91613 9.52763L5.20763 10.0046C5.59913 10.1486 5.59913 10.7021 5.20763 10.8506L3.91613 11.3276C3.79463 11.3726 3.69563 11.4716 3.65063 11.5931L3.17363 12.8846C3.02963 13.2761 2.47613 13.2761 2.32763 12.8846L1.85063 11.5931C1.80563 11.4716 1.70663 11.3726 1.58513 11.3276L0.293625 10.8506C-0.097875 10.7066 -0.097875 10.1531 0.293625 10.0046L1.58513 9.52763C1.70663 9.48263 1.80563 9.38363 1.85063 9.26213L2.32763 7.97063Z" fill="url(#paint0_linear_0_30)"/>
<path d="M7.51612 0.442125C7.73212 -0.147375 8.56462 -0.147375 8.78062 0.442125L9.74362 3.03863C9.81112 3.22313 9.95962 3.36713 10.1441 3.43913L12.7406 4.40213C13.3301 4.61813 13.3301 5.45063 12.7406 5.66663L10.1441 6.62962C9.95962 6.69712 9.81562 6.84563 9.74362 7.03013L8.78062 9.62662C8.56462 10.2161 7.73212 10.2161 7.51612 9.62662L6.55312 7.03013C6.48562 6.84563 6.33712 6.70162 6.15262 6.62962L3.55612 5.66663C2.96662 5.45063 2.96662 4.61813 3.55612 4.40213L6.15262 3.43913C6.33712 3.37163 6.48112 3.22313 6.55312 3.03863L7.51612 0.442125Z" fill="url(#paint1_linear_0_30)"/>
</g>
<defs>
<linearGradient id="paint0_linear_0_30" x1="6.59137" y1="2.11272e-07" x2="6.59137" y2="13.1783" gradientUnits="userSpaceOnUse">
<stop stop-color="#00ADFF"/>
<stop offset="1" stop-color="#0657FF"/>
</linearGradient>
<linearGradient id="paint1_linear_0_30" x1="6.59137" y1="2.11272e-07" x2="6.59137" y2="13.1783" gradientUnits="userSpaceOnUse">
<stop stop-color="#00ADFF"/>
<stop offset="1" stop-color="#0657FF"/>
</linearGradient>
</defs>
</svg>
